<svg width="801" height="450" viewBox="0 0 801 450" fill="none" xmlns="http://www.w3.org/2000/svg">
<path d="M525.225 240.001C510.437 239.935 495.999 235.499 483.725 227.251L361.475 145.751C356.624 141.843 353.406 136.265 352.452 130.11C351.498 123.954 352.877 117.664 356.318 112.472C359.758 107.279 365.014 103.558 371.054 102.038C377.095 100.517 383.485 101.306 388.975 104.251L511.475 185.751C515.557 188.439 520.337 189.872 525.225 189.872C530.112 189.872 534.893 188.439 538.975 185.751L661.475 104.251C666.964 101.306 673.355 100.517 679.395 102.038C685.436 103.558 690.691 107.279 694.132 112.472C697.573 117.664 698.951 123.954 697.997 130.11C697.043 136.265 693.826 141.843 688.975 145.751L566.725 227.251C554.451 235.499 540.012 239.935 525.225 240.001Z" fill="#FF3B30"/>
<path d="M725.225 450H325.225C305.333 450 286.257 442.098 272.192 428.033C258.126 413.968 250.225 394.891 250.225 375V75C250.225 55.1088 258.126 36.0322 272.192 21.967C286.257 7.90177 305.333 0 325.225 0H725.225C745.116 0 764.192 7.90177 778.258 21.967C792.323 36.0322 800.225 55.1088 800.225 75V375C800.225 394.891 792.323 413.968 778.258 428.033C764.192 442.098 745.116 450 725.225 450ZM325.225 50C318.594 50 312.235 52.6339 307.547 57.3223C302.859 62.0107 300.225 68.3696 300.225 75V375C300.225 381.63 302.859 387.989 307.547 392.678C312.235 397.366 318.594 400 325.225 400H725.225C731.855 400 738.214 397.366 742.902 392.678C747.591 387.989 750.225 381.63 750.225 375V75C750.225 68.3696 747.591 62.0107 742.902 57.3223C738.214 52.6339 731.855 50 725.225 50H325.225Z" fill="#FF3B30"/>
<path d="M175.225 300H125.225C118.594 300 112.235 297.366 107.547 292.678C102.859 287.989 100.225 281.63 100.225 275C100.225 268.37 102.859 262.011 107.547 257.322C112.235 252.634 118.594 250 125.225 250H175.225C181.855 250 188.214 252.634 192.902 257.322C197.591 262.011 200.225 268.37 200.225 275C200.225 281.63 197.591 287.989 192.902 292.678C188.214 297.366 181.855 300 175.225 300Z" fill="#084852"/>
<path d="M175.225 200H75.2246C68.5942 200 62.2353 197.366 57.5469 192.678C52.8585 187.989 50.2246 181.63 50.2246 175C50.2246 168.37 52.8585 162.011 57.5469 157.322C62.2353 152.634 68.5942 150 75.2246 150H175.225C181.855 150 188.214 152.634 192.902 157.322C197.591 162.011 200.225 168.37 200.225 175C200.225 181.63 197.591 187.989 192.902 192.678C188.214 197.366 181.855 200 175.225 200Z" fill="#084852"/>
<path d="M175.225 100H25.2246C18.5942 100 12.2353 97.3661 7.54694 92.6777C2.85853 87.9893 0.224609 81.6304 0.224609 75C0.224609 68.3696 2.85853 62.0107 7.54694 57.3223C12.2353 52.6339 18.5942 50 25.2246 50H175.225C181.855 50 188.214 52.6339 192.902 57.3223C197.591 62.0107 200.225 68.3696 200.225 75C200.225 81.6304 197.591 87.9893 192.902 92.6777C188.214 97.3661 181.855 100 175.225 100Z" fill="#084852"/>
</svg>
