<svg width="794" height="794" viewBox="0 0 794 794" fill="none" xmlns="http://www.w3.org/2000/svg">
<path d="M397.366 588.453C503.349 588.453 588.819 502.299 588.819 397C588.819 291.701 502.665 205.547 397.366 205.547C292.067 205.547 205.913 291.701 205.913 397C205.913 502.299 291.383 588.453 397.366 588.453ZM397.366 260.931C472.58 260.931 533.434 321.786 533.434 397C533.434 472.214 472.58 533.068 397.366 533.068C322.152 533.068 261.298 472.214 261.298 397C261.298 321.786 322.152 260.931 397.366 260.931Z" fill="#FF3B30"/>
<path d="M425.4 116.657V28.4522C425.4 12.7257 413.093 0.417969 397.366 0.417969C381.64 0.417969 369.332 12.7257 369.332 28.4522V116.657C369.332 132.384 381.64 144.691 397.366 144.691C413.093 144.691 425.4 132.384 425.4 116.657Z" fill="#084852"/>
<path d="M369.332 677.341V765.546C369.332 781.272 381.64 793.58 397.366 793.58C413.093 793.58 425.4 781.272 425.4 765.546V677.341C425.4 661.614 413.093 649.307 397.366 649.307C381.64 649.307 369.332 661.614 369.332 677.341Z" fill="#084852"/>
<path d="M615.486 218.539L677.709 156.316C688.649 145.376 688.649 127.598 677.709 116.658C666.768 105.718 648.991 105.718 638.05 116.658L575.828 178.88C564.888 189.821 564.888 207.598 575.828 218.539C581.298 224.009 588.136 226.744 595.657 226.744C603.179 226.744 610.016 224.009 615.486 218.539Z" fill="#084852"/>
<path d="M117.024 677.341C122.495 682.811 129.332 685.547 136.854 685.547C143.691 685.547 151.212 682.811 156.683 677.341L218.905 615.119C229.845 604.179 229.845 586.401 218.905 575.461C207.965 564.521 190.187 564.521 179.247 575.461L117.024 637.683C106.084 648.623 106.084 666.401 117.024 677.341Z" fill="#084852"/>
<path d="M793.947 396.999C793.947 381.273 781.64 368.965 765.913 368.965H677.708C661.982 368.965 649.674 381.273 649.674 396.999C649.674 412.726 661.982 425.033 677.708 425.033H765.913C780.956 425.033 793.947 412.726 793.947 396.999Z" fill="#084852"/>
<path d="M28.8193 425.033H117.024C132.751 425.033 145.059 412.726 145.059 396.999C145.059 381.273 132.751 368.965 117.024 368.965H28.8193C13.0928 368.965 0.785156 381.273 0.785156 396.999C0.785156 412.726 13.7766 425.033 28.8193 425.033Z" fill="#084852"/>
<path d="M657.879 685.547C664.717 685.547 672.238 682.811 677.709 677.341C688.649 666.401 688.649 648.623 677.709 637.683L615.486 575.461C604.546 564.521 586.768 564.521 575.828 575.461C564.888 586.401 564.888 604.179 575.828 615.119L638.05 677.341C643.52 682.811 651.042 685.547 657.879 685.547Z" fill="#084852"/>
<path d="M218.905 218.539C229.845 207.598 229.845 189.821 218.905 178.88L156.683 116.658C145.742 105.718 127.965 105.718 117.024 116.658C106.084 127.598 106.084 145.376 117.024 156.316L179.247 218.539C184.717 224.009 191.554 226.744 199.076 226.744C206.597 226.744 213.435 224.009 218.905 218.539Z" fill="#084852"/>
</svg>
