<svg width="793" height="778" viewBox="0 0 793 778" fill="none" xmlns="http://www.w3.org/2000/svg">
<path d="M764.204 722.445H28.7422C13.28 722.445 1.1792 735.218 1.1792 750.008C1.1792 764.798 13.9523 777.571 28.7422 777.571H764.877C780.339 777.571 792.44 764.798 792.44 750.008C792.44 735.218 779.667 722.445 764.204 722.445Z" fill="#FF3B30"/>
<path d="M1.1791 478.411L0.506836 609.503C0.506836 616.898 3.19591 624.293 8.57406 629.671C13.9522 635.05 20.6749 637.739 28.0699 637.739L158.49 637.066C165.885 637.066 172.608 634.377 177.986 628.999L628.406 178.579C639.162 167.823 639.162 150.344 628.406 138.915L499.33 8.49496C488.574 -2.26134 471.095 -2.26134 459.667 8.49496L369.582 99.2513L9.24633 458.915C4.54045 464.293 1.1791 471.016 1.1791 478.411ZM479.835 67.6546L570.591 158.411L519.498 209.503L428.742 118.747L479.835 67.6546ZM56.9774 490.512L389.078 158.411L479.835 249.167L147.734 580.596L56.3052 581.268L56.9774 490.512Z" fill="#084852"/>
</svg>
