<svg width="700" height="800" viewBox="0 0 700 800" fill="none" xmlns="http://www.w3.org/2000/svg">
<path d="M299.6 0C273.181 0.210316 247.909 10.8261 229.264 29.5457C210.619 48.2653 200.105 73.5796 200 100H150C117.15 100 91.1005 103 69.1505 111.25C47.2005 119.45 29.6505 134.3 19.2505 153.15C-1.49951 190.75 0.750488 236.8 0.000488281 299.7V550.3C0.750488 613.2 -1.49951 659.25 19.2505 696.9C29.6505 715.7 47.2505 730.55 69.1505 738.8C91.1005 747 117.15 750 150 750H338.1C327.756 734.432 319.391 717.636 313.2 700H150C120.4 700 99.7505 696.85 86.7505 692C73.7505 687.1 68.1505 681.85 63.1005 672.65C53.0005 654.35 50.7505 612.95 50.0005 550V300C50.7505 237.05 53.0005 195.65 63.1005 177.35C68.1505 168.15 73.7505 162.85 86.7505 158C99.7505 153.1 120.4 150 150 150V199.95H450V150C479.65 150 500.3 153.15 513.3 158C526.3 162.9 531.851 168.15 536.951 177.35C547.001 195.65 549.3 237.05 550 300V401.55C567.057 403.513 583.833 407.422 600 413.2V299.7C599.25 236.8 601.55 190.75 580.75 153.1C569.635 133.65 551.939 118.808 530.85 111.25C508.95 103 482.85 100 450 100H399.801C399.696 73.5796 389.182 48.2653 370.537 29.5457C351.892 10.8261 326.62 0.210316 300.2 0L299.6 0ZM300.1 50C328.05 50 350.1 72.1 350.1 100C350.167 106.585 348.92 113.117 346.431 119.213C343.942 125.309 340.261 130.848 335.605 135.504C330.949 140.161 325.41 143.841 319.313 146.33C313.217 148.819 306.685 150.067 300.1 150C290.242 150.132 280.573 147.293 272.351 141.853C264.129 136.414 257.734 128.624 254 119.5C251.438 113.319 250.129 106.691 250.15 100C250.15 72.1 272.201 50 300.151 50H300.1ZM150 300V350H450.6V300H150ZM150 400V450H383.7C403.727 433.941 426.353 421.427 450.6 413V400H150ZM149.5 500V550H299.5V500H149.5Z" fill="#084852"/>
<path d="M525 450C478.588 450 434.076 468.437 401.257 501.256C368.438 534.075 350 578.587 350 625C350 671.413 368.438 715.925 401.257 748.744C434.076 781.563 478.588 800 525 800C571.413 800 615.925 781.563 648.744 748.744C681.563 715.925 700 671.413 700 625C700 578.587 681.563 534.075 648.744 501.256C615.925 468.437 571.413 450 525 450ZM500 500H550V558.4C550 575.8 549.2 591.75 547.65 606.25C546.15 620.75 544.201 635.3 541.901 650H508.6C506.018 635.492 503.933 620.9 502.35 606.25C500.732 590.352 499.947 574.38 500 558.4V500ZM525 700C531.631 700 537.99 702.634 542.678 707.322C547.367 712.011 550 718.37 550 725C550 731.63 547.367 737.989 542.678 742.678C537.99 747.366 531.631 750 525 750C518.37 750 512.011 747.366 507.323 742.678C502.634 737.989 500 731.63 500 725C500 718.37 502.634 712.011 507.323 707.322C512.011 702.634 518.37 700 525 700Z" fill="#FF3B30"/>
</svg>
