<svg width="668" height="588" viewBox="0 0 668 588" fill="none" xmlns="http://www.w3.org/2000/svg">
<path d="M293.659 587.75C247.188 587.736 201.384 576.696 160.009 555.539C118.634 534.381 82.8691 503.709 55.6523 466.042C28.4356 428.376 10.5436 384.789 3.44622 338.864C-3.65114 292.938 0.248654 245.984 14.8252 201.859C29.4018 157.733 54.2392 117.696 87.297 85.0354C120.355 52.3749 160.69 28.0234 204.988 13.9815C249.287 -0.060494 296.284 -3.39224 342.121 4.25992C387.957 11.9121 431.324 30.3298 468.659 58C473.655 62.0603 476.893 67.8918 477.697 74.2798C478.501 80.6677 476.81 87.1196 472.975 92.2915C469.14 97.4634 463.458 100.956 457.112 102.043C450.766 103.13 444.246 101.726 438.909 98.125C394.842 65.4084 341.028 48.5127 286.169 50.1702C231.31 51.8276 178.614 71.9414 136.603 107.259C94.5914 142.576 65.7215 191.032 54.6617 244.79C43.6018 298.548 50.9987 354.465 75.6562 403.498C100.314 452.532 140.79 491.814 190.539 514.993C240.288 538.172 296.402 543.892 349.805 531.228C403.208 518.564 450.778 488.257 484.822 445.208C518.866 402.158 537.394 348.884 537.409 294C537.373 281.146 536.328 268.315 534.284 255.625C533.775 252.342 533.918 248.991 534.704 245.763C535.49 242.535 536.904 239.494 538.866 236.812C540.828 234.131 543.298 231.862 546.137 230.136C548.975 228.409 552.126 227.259 555.409 226.75C558.692 226.241 562.043 226.384 565.271 227.17C568.499 227.956 571.54 229.371 574.221 231.332C576.903 233.294 579.171 235.764 580.898 238.603C582.624 241.441 583.775 244.592 584.284 247.875C586.518 263.146 587.563 278.567 587.409 294C587.343 371.887 556.373 446.565 501.298 501.64C446.224 556.714 371.546 587.684 293.659 587.75Z" fill="#084852"/>
<path d="M324.909 387.75C318.289 387.722 311.951 385.07 307.284 380.375L188.534 261.625C184.438 256.842 182.298 250.69 182.541 244.398C182.784 238.106 185.392 232.138 189.845 227.686C194.297 223.233 200.266 220.625 206.558 220.382C212.849 220.139 219.001 222.279 223.784 226.375L324.909 327.375L626.034 26.3747C630.816 22.279 636.968 20.1389 643.26 20.3819C649.552 20.625 655.521 23.2333 659.973 27.6856C664.425 32.138 667.034 38.1065 667.277 44.3984C667.52 50.6903 665.38 56.8422 661.284 61.6247L342.534 380.375C337.867 385.07 331.529 387.722 324.909 387.75Z" fill="#FF3B30"/>
</svg>
