<svg width="668" height="668" viewBox="0 0 668 668" fill="none" xmlns="http://www.w3.org/2000/svg">
<path fill-rule="evenodd" clip-rule="evenodd" d="M167.451 0.666016C185.861 0.666016 200.785 15.59 200.785 33.9993V100.666C200.785 119.075 185.861 133.999 167.451 133.999C149.042 133.999 134.118 119.075 134.118 100.666V33.9993C134.118 15.59 149.042 0.666016 167.451 0.666016Z" fill="#FF3B30"/>
<path fill-rule="evenodd" clip-rule="evenodd" d="M500.785 0.666016C519.195 0.666016 534.118 15.59 534.118 33.9993V100.666C534.118 119.075 519.195 133.999 500.785 133.999C482.375 133.999 467.451 119.075 467.451 100.666V33.9993C467.451 15.59 482.375 0.666016 500.785 0.666016Z" fill="#FF3B30"/>
<path fill-rule="evenodd" clip-rule="evenodd" d="M167.451 367.333C167.451 348.923 182.375 334 200.785 334H467.451C485.861 334 500.784 348.923 500.784 367.333C500.784 385.743 485.861 400.667 467.451 400.667H200.785C182.375 400.667 167.451 385.743 167.451 367.333Z" fill="#FF3B30"/>
<path fill-rule="evenodd" clip-rule="evenodd" d="M167.451 500.667C167.451 482.257 182.375 467.334 200.785 467.334H334.118C352.528 467.334 367.451 482.257 367.451 500.667C367.451 519.077 352.528 534.001 334.118 534.001H200.785C182.375 534.001 167.451 519.077 167.451 500.667Z" fill="#FF3B30"/>
<path fill-rule="evenodd" clip-rule="evenodd" d="M167.452 67.334C75.4045 67.334 0.785156 141.953 0.785156 234.001V500.667C0.785156 592.714 75.4045 667.334 167.452 667.334H500.785C592.832 667.334 667.452 592.714 667.452 500.667V234.001C667.452 141.953 592.832 67.334 500.785 67.334H167.452ZM595.095 200.667C581.368 161.828 544.325 134.001 500.785 134.001H167.452C123.911 134.001 86.8698 161.828 73.1422 200.667H595.095ZM67.4518 267.334H600.785V500.667C600.785 555.897 556.015 600.667 500.785 600.667H167.452C112.223 600.667 67.4518 555.897 67.4518 500.667V267.334Z" fill="#084852"/>
</svg>
