<svg width="801" height="642" viewBox="0 0 801 642" fill="none" xmlns="http://www.w3.org/2000/svg">
<path d="M779.26 121.51H552.38V21.7292C552.38 9.75737 542.675 0.0527344 530.702 0.0527344H22.6188C10.647 0.0527344 0.942383 9.75737 0.942383 21.7307V234.29C0.942383 246.262 10.647 255.968 22.6188 255.968C34.5906 255.968 44.2953 246.264 44.2953 234.29V43.4072H509.024V121.51H271.177C259.205 121.51 249.499 131.214 249.499 143.186V398.921H217.874C214.191 398.921 210.569 399.86 207.349 401.647L102.882 459.67L106.682 422.821C107.314 416.716 105.326 410.632 101.215 406.075C97.1059 401.519 91.2575 398.919 85.12 398.919H22.6188C10.647 398.922 0.942383 408.627 0.942383 420.6C0.942383 432.574 10.647 442.278 22.6188 442.278H61.092L55.4921 496.592C54.6639 504.628 58.3733 512.458 65.1139 516.908C68.7248 519.29 72.8857 520.49 77.0544 520.49C80.6716 520.49 84.2966 519.586 87.5794 517.764L223.491 442.277H249.499V542.054C249.499 554.026 259.203 563.732 271.177 563.732H451.098C463.069 563.732 472.776 554.028 472.776 542.054C472.776 530.081 463.071 520.376 451.098 520.376H292.855V442.275H530.705C542.677 442.275 552.383 432.571 552.383 420.597V164.864H757.586V520.376H716.763C710.626 520.376 704.777 522.978 700.668 527.532C696.559 532.087 694.57 538.173 695.201 544.278L699.001 581.127L594.534 523.104C584.064 517.29 570.872 521.065 565.058 531.531C559.244 541.996 563.019 555.193 573.484 561.007L714.304 639.222C717.585 641.046 721.21 641.949 724.829 641.949C728.997 641.949 733.16 640.747 736.769 638.366C743.513 633.916 747.222 626.087 746.394 618.048L740.794 563.734H779.268C791.239 563.734 800.944 554.029 800.944 542.056V143.188C800.938 131.216 791.233 121.51 779.26 121.51ZM509.025 398.922H292.852V164.864H509.025V398.922Z" fill="#084852"/>
<path d="M350.783 420.597H530.703V143.188H271.177V420.597H350.783Z" fill="#FF3B30"/>
<path d="M530.704 442.277H271.177C259.205 442.277 249.499 432.572 249.499 420.6V143.188C249.499 131.216 259.204 121.51 271.177 121.51H530.705C542.677 121.51 552.383 131.214 552.383 143.188V420.6C552.38 432.572 542.675 442.277 530.704 442.277ZM292.855 398.922H509.029V164.864H292.855V398.922Z" fill="#084852"/>
</svg>
