<svg width="622" height="766" viewBox="0 0 622 766" fill="none" xmlns="http://www.w3.org/2000/svg">
<path d="M615.062 246.168L389.707 21.0523C376.26 7.58911 358.018 0.0167511 338.99 0L71.7692 0C52.7348 0 34.48 7.56137 21.0207 21.0207C7.56138 34.48 0 52.7348 0 71.7692V598.077C0 617.111 7.56138 635.366 21.0207 648.825C34.48 662.284 52.7348 669.846 71.7692 669.846H95.6922V693.769C95.6922 712.803 103.254 731.058 116.713 744.517C130.172 757.977 148.427 765.538 167.461 765.538H550.23C569.265 765.538 587.52 757.977 600.979 744.517C614.438 731.058 622 712.803 622 693.769V263.154C622.018 260.005 621.414 256.884 620.224 253.969C619.033 251.055 617.279 248.404 615.062 246.168ZM478.461 177.27L540.422 239.231H478.461V177.27ZM71.7692 622C65.4244 622 59.3395 619.479 54.853 614.993C50.3666 610.506 47.8461 604.421 47.8461 598.077V71.7692C47.8461 65.4244 50.3666 59.3395 54.853 54.853C59.3395 50.3666 65.4244 47.8461 71.7692 47.8461H338.99C342.138 47.8279 345.259 48.4314 348.174 49.6219C351.089 50.8124 353.74 52.5666 355.975 54.7838L396.884 95.6922H167.461C148.427 95.6922 130.172 103.254 116.713 116.713C103.254 130.172 95.6922 148.427 95.6922 167.461V622H71.7692ZM550.23 717.692H167.461C161.117 717.692 155.032 715.171 150.545 710.685C146.059 706.199 143.538 700.114 143.538 693.769V167.461C143.538 161.117 146.059 155.032 150.545 150.545C155.032 146.059 161.117 143.538 167.461 143.538H430.615V263.154C430.615 269.498 433.136 275.583 437.622 280.07C442.108 284.556 448.193 287.077 454.538 287.077H574.153V693.769C574.153 700.114 571.633 706.199 567.147 710.685C562.66 715.171 556.575 717.692 550.23 717.692Z" fill="#084852"/>
<path d="M406.692 645.922H311C304.655 645.922 298.57 643.402 294.084 638.916C289.597 634.429 287.077 628.344 287.077 621.999V574.153H239.231C232.886 574.153 226.801 571.633 222.315 567.146C217.828 562.66 215.308 556.575 215.308 550.23V454.538C215.308 448.193 217.828 442.108 222.315 437.622C226.801 433.135 232.886 430.615 239.231 430.615H287.077V382.769C287.077 376.424 289.597 370.339 294.084 365.853C298.57 361.366 304.655 358.846 311 358.846H406.692C413.037 358.846 419.122 361.366 423.608 365.853C428.095 370.339 430.615 376.424 430.615 382.769V430.615H478.461C484.806 430.615 490.891 433.135 495.377 437.622C499.864 442.108 502.384 448.193 502.384 454.538V550.23C502.384 556.575 499.864 562.66 495.377 567.146C490.891 571.633 484.806 574.153 478.461 574.153H430.615V621.999C430.615 628.344 428.095 634.429 423.608 638.916C419.122 643.402 413.037 645.922 406.692 645.922ZM334.923 598.076H382.769V550.23C382.769 543.885 385.289 537.8 389.776 533.314C394.262 528.828 400.347 526.307 406.692 526.307H454.538V478.461H406.692C400.347 478.461 394.262 475.941 389.776 471.454C385.289 466.968 382.769 460.883 382.769 454.538V406.692H334.923V454.538C334.923 460.883 332.402 466.968 327.916 471.454C323.43 475.941 317.345 478.461 311 478.461H263.154V526.307H311C317.345 526.307 323.43 528.828 327.916 533.314C332.402 537.8 334.923 543.885 334.923 550.23V598.076Z" fill="#B6916B"/>
</svg>
