<svg width="794" height="794" viewBox="0 0 794 794" fill="none" xmlns="http://www.w3.org/2000/svg">
<path d="M397 588.136C502.983 588.136 588.453 501.983 588.453 396.683C588.453 291.384 502.299 205.23 397 205.23C291.701 205.23 205.547 291.384 205.547 396.683C205.547 501.983 291.017 588.136 397 588.136ZM397 260.615C472.214 260.615 533.068 321.47 533.068 396.683C533.068 471.897 472.214 532.752 397 532.752C321.786 532.752 260.931 471.897 260.931 396.683C260.931 321.47 321.786 260.615 397 260.615Z" fill="#B6916B"/>
<path d="M425.034 116.342V28.1367C425.034 12.4102 412.726 0.102539 397 0.102539C381.274 0.102539 368.966 12.4102 368.966 28.1367V116.342C368.966 132.068 381.274 144.376 397 144.376C412.726 144.376 425.034 132.068 425.034 116.342Z" fill="#084852"/>
<path d="M368.966 677.025V765.231C368.966 780.957 381.274 793.265 397 793.265C412.726 793.265 425.034 780.957 425.034 765.231V677.025C425.034 661.299 412.726 648.991 397 648.991C381.274 648.991 368.966 661.299 368.966 677.025Z" fill="#084852"/>
<path d="M615.12 218.222L677.342 156C688.282 145.06 688.282 127.282 677.342 116.342C666.402 105.402 648.624 105.402 637.684 116.342L575.462 178.564C564.522 189.504 564.522 207.282 575.462 218.222C580.932 223.692 587.77 226.427 595.291 226.427C602.812 226.427 609.65 223.692 615.12 218.222Z" fill="#084852"/>
<path d="M116.658 677.026C122.128 682.496 128.966 685.231 136.487 685.231C143.325 685.231 150.846 682.496 156.316 677.026L218.539 614.804C229.479 603.864 229.479 586.086 218.539 575.146C207.598 564.205 189.821 564.205 178.88 575.146L116.658 637.368C105.718 648.308 105.718 666.086 116.658 677.026Z" fill="#084852"/>
<path d="M793.581 396.684C793.581 380.957 781.273 368.649 765.547 368.649H677.342C661.615 368.649 649.308 380.957 649.308 396.684C649.308 412.41 661.615 424.718 677.342 424.718H765.547C780.59 424.718 793.581 412.41 793.581 396.684Z" fill="#084852"/>
<path d="M28.4531 424.718H116.658C132.385 424.718 144.692 412.41 144.692 396.684C144.692 380.957 132.385 368.649 116.658 368.649H28.4531C12.7266 368.649 0.418945 380.957 0.418945 396.684C0.418945 412.41 13.4104 424.718 28.4531 424.718Z" fill="#084852"/>
<path d="M657.513 685.231C664.351 685.231 671.872 682.496 677.342 677.026C688.282 666.086 688.282 648.308 677.342 637.368L615.12 575.146C604.18 564.205 586.402 564.205 575.462 575.146C564.522 586.086 564.522 603.864 575.462 614.804L637.684 677.026C643.154 682.496 650.676 685.231 657.513 685.231Z" fill="#084852"/>
<path d="M218.539 218.222C229.479 207.282 229.479 189.504 218.539 178.564L156.316 116.342C145.376 105.402 127.598 105.402 116.658 116.342C105.718 127.282 105.718 145.06 116.658 156L178.88 218.222C184.351 223.692 191.188 226.427 198.71 226.427C206.231 226.427 213.069 223.692 218.539 218.222Z" fill="#084852"/>
</svg>
