<svg width="792" height="778" viewBox="0 0 792 778" fill="none" xmlns="http://www.w3.org/2000/svg">
<path d="M763.73 722.79H28.2681C12.8059 722.79 0.705078 735.563 0.705078 750.353C0.705078 765.143 13.4782 777.916 28.2681 777.916H764.403C779.865 777.916 791.966 765.143 791.966 750.353C791.966 735.563 779.192 722.79 763.73 722.79Z" fill="#B6916B"/>
<path d="M0.705472 478.757L0.0332031 609.849C0.0332031 617.244 2.72228 624.639 8.10043 630.017C13.4786 635.395 20.2013 638.084 27.5962 638.084L158.016 637.412C165.411 637.412 172.134 634.723 177.512 629.345L627.932 178.925C638.689 168.168 638.689 150.689 627.932 139.261L498.857 8.84066C488.1 -1.91564 470.621 -1.91564 459.193 8.84066L369.109 99.597L8.7727 459.261C4.06682 464.639 0.705472 471.362 0.705472 478.757ZM479.361 68.0003L570.117 158.757L519.025 209.849L428.269 119.093L479.361 68.0003ZM56.5038 490.857L388.605 158.757L479.361 249.513L147.26 580.941L55.8315 581.614L56.5038 490.857Z" fill="#084852"/>
</svg>
