<svg width="700" height="800" viewBox="0 0 700 800" fill="none" xmlns="http://www.w3.org/2000/svg">
<path d="M299.6 0C273.18 0.210316 247.908 10.8261 229.264 29.5457C210.619 48.2653 200.104 73.5796 200 100H150C117.15 100 91.1 103 69.15 111.25C47.2 119.45 29.65 134.3 19.25 153.15C-1.5 190.75 0.75 236.8 0 299.7V550.3C0.75 613.2 -1.5 659.25 19.25 696.9C29.65 715.7 47.25 730.55 69.15 738.8C91.1 747 117.15 750 150 750H338.1C327.755 734.432 319.391 717.636 313.2 700H150C120.4 700 99.75 696.85 86.75 692C73.75 687.1 68.15 681.85 63.1 672.65C53 654.35 50.75 612.95 50 550V300C50.75 237.05 53 195.65 63.1 177.35C68.15 168.15 73.75 162.85 86.75 158C99.75 153.1 120.4 150 150 150V199.95H450V150C479.65 150 500.3 153.15 513.3 158C526.3 162.9 531.85 168.15 536.95 177.35C547 195.65 549.3 237.05 550 300V401.55C567.057 403.513 583.832 407.422 600 413.2V299.7C599.25 236.8 601.55 190.75 580.75 153.1C569.635 133.65 551.939 118.808 530.85 111.25C508.95 103 482.85 100 450 100H399.8C399.696 73.5796 389.181 48.2653 370.536 29.5457C351.892 10.8261 326.62 0.210316 300.2 0L299.6 0ZM300.1 50C328.05 50 350.1 72.1 350.1 100C350.167 106.585 348.919 113.117 346.43 119.213C343.941 125.309 340.261 130.848 335.604 135.504C330.948 140.161 325.409 143.841 319.313 146.33C313.217 148.819 306.685 150.067 300.1 150C290.242 150.132 280.573 147.293 272.35 141.853C264.128 136.414 257.734 128.624 254 119.5C251.438 113.319 250.129 106.691 250.15 100C250.15 72.1 272.2 50 300.15 50H300.1ZM150 300V350H450.6V300H150ZM150 400V450H383.7C403.726 433.941 426.353 421.427 450.6 413V400H150ZM149.5 500V550H299.5V500H149.5Z" fill="#084852"/>
<path d="M525 450C478.587 450 434.075 468.437 401.256 501.256C368.437 534.075 350 578.587 350 625C350 671.413 368.437 715.925 401.256 748.744C434.075 781.563 478.587 800 525 800C571.413 800 615.925 781.563 648.744 748.744C681.563 715.925 700 671.413 700 625C700 578.587 681.563 534.075 648.744 501.256C615.925 468.437 571.413 450 525 450ZM500 500H550V558.4C550 575.8 549.2 591.75 547.65 606.25C546.15 620.75 544.2 635.3 541.9 650H508.6C506.017 635.492 503.933 620.9 502.35 606.25C500.731 590.352 499.947 574.38 500 558.4V500ZM525 700C531.63 700 537.989 702.634 542.678 707.322C547.366 712.011 550 718.37 550 725C550 731.63 547.366 737.989 542.678 742.678C537.989 747.366 531.63 750 525 750C518.37 750 512.011 747.366 507.322 742.678C502.634 737.989 500 731.63 500 725C500 718.37 502.634 712.011 507.322 707.322C512.011 702.634 518.37 700 525 700Z" fill="#B6916B"/>
</svg>
