<svg width="669" height="588" viewBox="0 0 669 588" fill="none" xmlns="http://www.w3.org/2000/svg">
<path d="M294.375 587.75C247.904 587.736 202.1 576.696 160.725 555.539C119.35 534.381 83.5849 503.709 56.3682 466.042C29.1514 428.376 11.2594 384.789 4.16204 338.864C-2.93532 292.938 0.964474 245.984 15.5411 201.859C30.1176 157.733 54.955 117.696 88.0129 85.0354C121.071 52.3749 161.406 28.0234 205.704 13.9815C250.002 -0.060494 297 -3.39224 342.837 4.25992C388.673 11.9121 432.04 30.3298 469.375 58C474.371 62.0603 477.609 67.8918 478.413 74.2798C479.217 80.6677 477.525 87.1196 473.691 92.2915C469.856 97.4634 464.174 100.956 457.828 102.043C451.482 103.13 444.961 101.726 439.625 98.125C395.558 65.4084 341.744 48.5127 286.885 50.1702C232.026 51.8276 179.33 71.9414 137.318 107.259C95.3072 142.576 66.4373 191.032 55.3775 244.79C44.3176 298.548 51.7146 354.465 76.372 403.498C101.029 452.532 141.506 491.814 191.255 514.993C241.004 538.172 297.118 543.892 350.521 531.228C403.924 518.564 451.494 488.257 485.538 445.208C519.582 402.158 538.11 348.884 538.125 294C538.089 281.146 537.044 268.315 535 255.625C534.491 252.342 534.633 248.991 535.42 245.763C536.206 242.535 537.62 239.494 539.582 236.812C541.544 234.131 544.014 231.862 546.852 230.136C549.691 228.409 552.841 227.259 556.125 226.75C559.408 226.241 562.759 226.384 565.987 227.17C569.215 227.956 572.256 229.371 574.937 231.332C577.618 233.294 579.887 235.764 581.614 238.603C583.34 241.441 584.491 244.592 585 247.875C587.234 263.146 588.278 278.567 588.125 294C588.058 371.887 557.089 446.565 502.014 501.64C446.94 556.714 372.262 587.684 294.375 587.75Z" fill="#084852"/>
<path d="M325.625 387.75C319.005 387.722 312.667 385.07 308 380.375L189.25 261.625C185.154 256.842 183.014 250.69 183.257 244.398C183.5 238.106 186.108 232.138 190.561 227.686C195.013 223.233 200.981 220.625 207.273 220.382C213.565 220.139 219.717 222.279 224.5 226.375L325.625 327.375L626.75 26.3747C631.532 22.279 637.684 20.1389 643.976 20.3819C650.268 20.625 656.236 23.2333 660.689 27.6856C665.141 32.138 667.749 38.1065 667.993 44.3984C668.236 50.6903 666.095 56.8422 662 61.6247L343.25 380.375C338.583 385.07 332.244 387.722 325.625 387.75Z" fill="#B6916B"/>
</svg>
