<svg width="606" height="701" viewBox="0 0 606 701" fill="none" xmlns="http://www.w3.org/2000/svg">
<path d="M256.422 669.219H32.125V31.4062H475.641V296.719C475.641 305.312 482.672 312.344 491.266 312.344C499.859 312.344 506.891 305.312 506.891 296.719V25C506.891 11.3281 495.719 0.15625 482.047 0.15625H25.6406C11.9687 0.15625 0.875 11.25 0.875 25V675.703C0.875 689.375 12.0469 700.547 25.7188 700.547H256.5C265.094 700.547 272.125 693.516 272.125 684.922C272.125 676.328 265.094 669.219 256.422 669.219Z" fill="#084852"/>
<path d="M439.156 250.469C439.156 241.875 432.125 234.844 423.531 234.844H75.0938C66.5 234.844 59.4688 241.875 59.4688 250.469C59.4688 259.062 66.5 266.094 75.0938 266.094H423.531C432.125 266.094 439.156 259.062 439.156 250.469ZM276.656 357.891C276.656 349.297 271.266 342.266 264.781 342.266H71.4219C64.8594 342.266 59.5469 349.297 59.5469 357.891C59.5469 366.484 64.9375 373.516 71.4219 373.516H264.703C271.266 373.516 276.656 366.484 276.656 357.891ZM71.4219 450.469C64.8594 450.469 59.5469 457.5 59.5469 466.094C59.5469 474.687 64.9375 481.719 71.4219 481.719H203.141C209.703 481.719 215.016 474.687 215.016 466.094C215.016 457.5 209.625 450.469 203.141 450.469H71.4219ZM429.625 348.047C332.516 348.047 253.844 426.719 253.844 523.828C253.844 620.937 332.516 699.609 429.625 699.609C526.734 699.609 605.406 620.937 605.406 523.828C605.406 426.719 526.656 348.047 429.625 348.047ZM557.281 467.969L410.406 614.844C409.859 615.937 409.156 616.875 408.219 617.812C406.422 619.609 404.156 620.703 401.734 621.094C397.75 622.109 393.453 621.094 390.328 618.047C389.234 616.953 388.375 615.625 387.828 614.297L306.734 533.047C302.125 528.437 302.125 520.859 306.734 516.25C311.344 511.641 318.922 511.641 323.531 516.25L399.391 592.109L540.406 451.094C545.016 446.484 552.594 446.484 557.203 451.094C561.891 455.781 561.891 463.359 557.281 467.969Z" fill="#084852"/>
<path d="M421.812 184.453H86.6562C75.0937 184.453 65.7188 175.078 65.7188 163.516V99.9219C65.7188 88.3594 75.0937 78.9844 86.6562 78.9844H421.812C433.375 78.9844 442.75 88.3594 442.75 99.9219V163.516C442.75 175.078 433.375 184.453 421.812 184.453Z" fill="#B6916B"/>
</svg>
